<svg xmlns="http://www.w3.org/2000/svg" viewBox="0 0 1190.9 142.54">
  <defs>
    <style>
      .cls-1 {
        fill: #ff5403;
      }
    </style>
  </defs>
  <g id="Livello_2" data-name="Livello 2">
    <g id="Livello_1-2" data-name="Livello 1">
      <g>
        <g>
          <path d="M44.05,141.29c-19.6,0-40.55-10.73-40.55-40.84V33.2H19.65v67.4c0,17.13,8.49,26.19,24.55,26.19s24.4-9.06,24.4-26.19V33.2H84.75v67.25C84.75,130.56,63.72,141.29,44.05,141.29Z"/>
          <path class="cls-1" d="M83.5,34.45v66C83.5,127.59,65.65,140,44.05,140s-39.3-12.45-39.3-39.59v-66H18.4V100.6C18.4,119.79,28.75,128,44.2,128s25.65-8.25,25.65-27.44V34.45H83.5M86,32H67.35V100.6c0,16.55-7.79,24.94-23.15,24.94s-23.3-8.39-23.3-24.94V32H2.25v68.5c0,13.43,4.27,24.44,12.36,31.82C22,139,32.15,142.54,44.05,142.54s22.11-3.55,29.5-10.26C81.69,124.88,86,113.87,86,100.45V32Z"/>
        </g>
        <g>
          <path d="M136.18,141.29c-21.71,0-37.09-12.41-37.4-30.17l0-1.28H115.7l.12,1.13c.4,3.81,3,16.27,20.36,16.27,11.81,0,19.75-6.49,19.75-16.15,0-12-11.11-15-24-18.41C116.69,88.61,99.38,84,99.38,62.05c0-18.07,14.42-30.2,35.9-30.2,20,0,34.12,11,35.89,28l.14,1.38H153.82l-.13-1.09c-.86-6.68-7.17-13.92-19-14.06h-.8c-8.72,0-18,4.08-18,15.56,0,11.33,10.88,14.33,23.49,17.8,15.42,4.25,32.9,9.06,32.9,31.1C172.22,125.8,159.84,141.29,136.18,141.29Z"/>
          <path class="cls-1" d="M135.28,33.1c19.95,0,33,10.95,34.64,26.85h-15c-.9-7.05-7.5-15-20.25-15.15h-.82c-10.86,0-19.28,5.83-19.28,16.81,0,27,56.39,10.2,56.39,48.9,0,14.84-12.14,29.54-34.79,29.54-21,0-35.85-11.7-36.15-28.95h14.55c.9,8.7,7,17.4,21.6,17.4,13.2,0,21-7.49,21-17.4,0-28.19-56.55-10.19-56.55-49,0-17.25,14-28.95,34.65-28.95m0-2.5c-10.75,0-20,3-26.69,8.59A29.22,29.22,0,0,0,98.13,62.05c0,10.25,3.66,17.81,11.2,23.1,6.38,4.49,14.48,6.65,22.31,8.74,14.28,3.82,23,6.69,23,17.2,0,9.06-7.27,14.9-18.5,14.9-16.28,0-18.75-11.6-19.12-15.15l-.23-2.25H97.48l0,2.55c.32,18.49,16.21,31.4,38.65,31.4,24.48,0,37.29-16.12,37.29-32,0-23-18.75-28.16-33.82-32.31-14-3.85-22.57-6.71-22.57-16.59,0-10.55,8.66-14.31,16.78-14.31h.75c11.15.13,17,6.81,17.84,13l.27,2.19h20l-.29-2.76C170.58,42,156,30.6,135.28,30.6Z"/>
        </g>
        <g>
          <polygon points="187.26 140.24 187.26 33.05 246.01 33.05 246.01 46.8 203.41 46.8 203.41 79.25 241.51 79.25 241.51 93 203.41 93 203.41 126.49 246.01 126.49 246.01 140.24 187.26 140.24"/>
          <path class="cls-1" d="M244.76,34.3V45.55h-42.6v35h38.1V91.75h-38.1v36h42.6V139H188.51V34.3h56.25m2.5-2.5H186V141.49h61.25V125.24h-42.6v-31h38.1V78h-38.1V48.05h42.6V31.8Z"/>
        </g>
        <g>
          <path d="M315.21,140.24,290.31,97.5H275.78v42.74H259.63V33.2h35c27.69,0,37.55,16.53,37.55,32S323.17,92,308,96l26.51,44.23ZM294.63,84.05c13.51,0,20.95-6.7,20.95-18.85S308.53,47,294.63,47H275.78v37.1Z"/>
          <path class="cls-1" d="M294.63,34.45c24.6,0,36.3,13.65,36.3,30.75,0,13.35-7.35,26.1-24.9,30L332.28,139H315.93L291,96.25h-16.5V139H260.88V34.45h33.75M274.53,85.3h20.1c15.45,0,22.2-8.4,22.2-20.1s-6.6-19.5-22.2-19.5h-20.1V85.3M294.63,32H258.38V141.49H277V98.75H289.6l24.17,41.5.72,1.24h22.2l-2.26-3.78L309.89,96.77c14.81-4.53,23.54-16.12,23.54-31.57,0-9.57-3.36-17.74-9.73-23.62-6.8-6.3-16.86-9.63-29.07-9.63ZM277,48.2h17.6c13.26,0,19.7,5.56,19.7,17s-6.81,17.6-19.7,17.6H277V48.2Z"/>
        </g>
        <g>
          <path d="M455.68,141.29V73.9c0-17.14-8.49-26.2-24.55-26.2s-24.4,9.06-24.4,26.2v67.39H390.58V74.05c0-30.12,21-40.85,40.7-40.85s40.55,10.73,40.55,40.85v67.24Z"/>
          <path class="cls-1" d="M431.28,34.45c21.6,0,39.3,12.45,39.3,39.6v66H456.93V73.9c0-19.2-10.35-27.45-25.8-27.45S405.48,54.7,405.48,73.9V140H391.83v-66c0-27.15,17.85-39.6,39.45-39.6m0-2.5c-11.91,0-22.11,3.55-29.51,10.27-8.14,7.39-12.44,18.4-12.44,31.83v68.49H408V73.9c0-16.56,7.79-25,23.15-25s23.3,8.39,23.3,25v68.64h18.65V74.05c0-13.44-4.28-24.44-12.37-31.83C453.35,35.5,443.18,32,431.28,32Z"/>
        </g>
        <g>
          <polygon points="559.68 140.24 506.7 59.91 506.7 140.24 490.55 140.24 490.55 33.05 506.13 33.05 559.1 113.23 559.1 33.05 575.25 33.05 575.25 140.24 559.68 140.24"/>
          <path class="cls-1" d="M574,34.3V139H560.35l-54.9-83.24V139H491.8V34.3h13.65l54.9,83.09V34.3H574m2.5-2.5H557.85v77.28L507.54,32.92l-.74-1.12H489.3V141.49H508V64.08l50.32,76.29.74,1.12H576.5V31.8Z"/>
        </g>
        <g>
          <polygon points="594.47 140.24 594.47 33.2 656.07 33.2 656.07 46.8 610.62 46.8 610.62 79.55 647.52 79.55 647.52 93.15 610.62 93.15 610.62 140.24 594.47 140.24"/>
          <path class="cls-1" d="M654.82,34.45v11.1H609.37V80.8h36.9V91.9h-36.9V139H595.72V34.45h59.1m2.5-2.5h-64.1V141.49h18.65V94.4h36.9V78.3h-36.9V48.05h45.45V32Z"/>
        </g>
        <g>
          <path d="M720.81,140.24,695.91,97.5H681.38v42.74H665.23V33.2h35c27.69,0,37.55,16.53,37.55,32S728.76,92,713.57,96l26.51,44.23ZM700.22,84.05c13.51,0,20.95-6.7,20.95-18.85S714.12,47,700.22,47H681.38v37.1Z"/>
          <path class="cls-1" d="M700.22,34.45c24.6,0,36.3,13.65,36.3,30.75,0,13.35-7.35,26.1-24.9,30L737.87,139H721.52l-24.9-42.74H680.13V139H666.48V34.45h33.74M680.13,85.3h20.09c15.45,0,22.2-8.4,22.2-20.1s-6.6-19.5-22.2-19.5H680.13V85.3M700.22,32H664V141.49h18.65V98.75h12.56l24.17,41.5.73,1.24h22.2L740,137.71,715.48,96.77C730.29,92.24,739,80.65,739,65.2c0-9.57-3.36-17.74-9.72-23.62-6.81-6.3-16.86-9.63-29.08-9.63ZM682.63,48.2h17.59c13.26,0,19.7,5.56,19.7,17s-6.81,17.6-19.7,17.6H682.63V48.2Z"/>
        </g>
        <g>
          <rect x="752.99" y="33.2" width="16.15" height="107.05"/>
          <path class="cls-1" d="M767.89,34.45V139H754.24V34.45h13.65m2.5-2.5H751.74V141.49h18.65V32Z"/>
        </g>
        <g>
          <polygon points="788.09 140.24 788.09 33.05 846.84 33.05 846.84 46.8 804.24 46.8 804.24 79.25 842.34 79.25 842.34 93 804.24 93 804.24 126.49 846.84 126.49 846.84 140.24 788.09 140.24"/>
          <path class="cls-1" d="M845.59,34.3V45.55H803v35h38.1V91.75H803v36h42.6V139H789.34V34.3h56.25m2.5-2.5H786.84V141.49h61.25V125.24h-42.6v-31h38.1V78h-38.1V48.05h42.6V31.8Z"/>
        </g>
        <g>
          <polygon points="929.59 140.24 876.61 59.91 876.61 140.24 860.46 140.24 860.46 33.05 876.03 33.05 929.01 113.23 929.01 33.05 945.16 33.05 945.16 140.24 929.59 140.24"/>
          <path class="cls-1" d="M943.91,34.3V139H930.26l-54.9-83.24V139H861.71V34.3h13.65l54.9,83.09V34.3h13.65m2.5-2.5H927.76v77.28L877.45,32.92l-.74-1.12h-17.5V141.49h18.65V64.08l50.31,76.29.74,1.12h17.5V31.8Z"/>
        </g>
        <g>
          <path d="M964.38,140.24V33.2h33.8c35,0,56.75,20.59,56.75,53.75,0,32.87-21.75,53.29-56.75,53.29Zm33.8-13.75c26,0,40.3-14,40.3-39.54s-14.69-40.15-40.3-40.15H980.53v79.69Z"/>
          <path class="cls-1" d="M998.18,34.45c34.35,0,55.5,20.1,55.5,52.5s-21.15,52-55.5,52H965.63V34.45h32.55m-18.9,93.29h18.9c27.3,0,41.55-15.29,41.55-40.79s-14.25-41.4-41.55-41.4h-18.9v82.19M998.18,32h-35V141.49h35c35.77,0,58-20.9,58-54.54,0-33.93-22.23-55-58-55Zm-16.4,16.1h16.4c25.18,0,39.05,13.81,39.05,38.9,0,24.69-13.87,38.29-39.05,38.29h-16.4V48.05Z"/>
        </g>
        <g>
          <polygon points="1065.48 140.24 1065.48 33.2 1081.63 33.2 1081.63 126.64 1118.23 126.64 1118.23 140.24 1065.48 140.24"/>
          <path class="cls-1" d="M1080.38,34.45v93.44H1117V139h-50.25V34.45h13.65m2.5-2.5h-18.65V141.49h55.25v-16.1h-36.6V32Z"/>
        </g>
        <g>
          <polygon points="1137.82 140.24 1137.82 99.86 1102.8 33.2 1120.8 33.2 1145.82 84.54 1170.84 33.2 1188.83 33.2 1153.97 99.85 1153.97 140.24 1137.82 140.24"/>
          <path class="cls-1" d="M1186.77,34.45l-34,65.1V139h-13.65V99.55l-34.2-65.1H1120l25.8,53,25.8-52.95h15.15m4.13-2.5h-20.84l-.69,1.4-23.55,48.34-23.55-48.34-.69-1.4h-20.85l1.93,3.66,33.91,64.55v41.33h18.65V100.16L1189,35.61,1190.9,32Z"/>
        </g>
      </g>
      <g>
        <path d="M11.8,22.35A10.43,10.43,0,0,1,1.25,11.8,10.43,10.43,0,0,1,11.8,1.25,10.29,10.29,0,0,1,22.05,11.8,10.29,10.29,0,0,1,11.8,22.35Z"/>
        <path class="cls-1" d="M11.8,2.5a9.1,9.1,0,0,1,9,9.3,9.15,9.15,0,1,1-18.3,0,9.16,9.16,0,0,1,9.3-9.3m0-2.5A11.67,11.67,0,0,0,0,11.8,11.67,11.67,0,0,0,11.8,23.6,11.53,11.53,0,0,0,23.3,11.8,11.53,11.53,0,0,0,11.8,0Z"/>
      </g>
      <g>
        <path d="M76.9,22.35A10.43,10.43,0,0,1,66.35,11.8,10.43,10.43,0,0,1,76.9,1.25,10.29,10.29,0,0,1,87.15,11.8,10.29,10.29,0,0,1,76.9,22.35Z"/>
        <path class="cls-1" d="M76.9,2.5a9.1,9.1,0,0,1,9,9.3,9.15,9.15,0,1,1-18.3,0,9.16,9.16,0,0,1,9.3-9.3m0-2.5A11.67,11.67,0,0,0,65.1,11.8,11.67,11.67,0,0,0,76.9,23.6,11.53,11.53,0,0,0,88.4,11.8,11.53,11.53,0,0,0,76.9,0Z"/>
      </g>
      <g>
        <path d="M398.81,22.35A10.43,10.43,0,0,1,388.26,11.8,10.43,10.43,0,0,1,398.81,1.25,10.29,10.29,0,0,1,409.06,11.8,10.29,10.29,0,0,1,398.81,22.35Z"/>
        <path class="cls-1" d="M398.81,2.5a9.1,9.1,0,0,1,9,9.3,9.15,9.15,0,1,1-18.3,0,9.16,9.16,0,0,1,9.3-9.3m0-2.5A11.67,11.67,0,0,0,387,11.8a11.67,11.67,0,0,0,11.8,11.8,11.53,11.53,0,0,0,11.5-11.8A11.53,11.53,0,0,0,398.81,0Z"/>
      </g>
      <g>
        <path d="M463.9,22.35A10.44,10.44,0,0,1,453.35,11.8,10.44,10.44,0,0,1,463.9,1.25,10.29,10.29,0,0,1,474.15,11.8,10.29,10.29,0,0,1,463.9,22.35Z"/>
        <path class="cls-1" d="M463.9,2.5a9.1,9.1,0,0,1,9,9.3,9.15,9.15,0,1,1-18.3,0,9.16,9.16,0,0,1,9.3-9.3m0-2.5a11.68,11.68,0,0,0-11.8,11.8,11.68,11.68,0,0,0,11.8,11.8,11.53,11.53,0,0,0,11.5-11.8A11.53,11.53,0,0,0,463.9,0Z"/>
      </g>
    </g>
  </g>
</svg>
