<svg xmlns="http://www.w3.org/2000/svg" viewBox="0 0 1189.57 141.54">
  <defs>
    <style>
      .cls-1 {
        fill: #06ff00;
      }
    </style>
  </defs>
  <g id="Livello_2" data-name="Livello 2">
    <g id="Livello_1-2" data-name="Livello 1">
      <g>
        <g>
          <path d="M43.55,140.54c-19.48,0-40.3-10.66-40.3-40.59V33H18.9V100.1c0,17.3,8.57,26.44,24.8,26.44s24.65-9.14,24.65-26.44V33H84v67C84,129.88,63.1,140.54,43.55,140.54Z"/>
          <path class="cls-1" d="M83,34v66c0,27.14-17.85,39.59-39.45,39.59S4.25,127.09,4.25,100V34H17.9V100.1c0,19.19,10.35,27.44,25.8,27.44s25.65-8.25,25.65-27.44V34H83m2-2H67.35V100.1c0,16.88-8,25.44-23.65,25.44s-23.8-8.8-23.8-25.44V32H2.25v68c0,30.67,21.33,41.59,41.3,41.59,11.78,0,21.87-3.5,29.17-10.13C80.75,124.11,85,113.23,85,100V32Z"/>
        </g>
        <g>
          <path d="M135.68,140.54c-21.57,0-36.85-12.3-37.15-29.93l0-1H115l.09.9c.4,3.87,3.07,16.5,20.61,16.5,12,0,20-6.59,20-16.4,0-12.2-11.2-15.19-24.15-18.65-15.19-4-32.4-8.65-32.4-30.39,0-17.92,14.32-29.95,35.65-29.95,19.9,0,33.89,10.89,35.64,27.74l.11,1.11h-17l-.11-.88c-.86-6.77-7.26-14.13-19.27-14.27h-.8c-11.11,0-18.28,6.2-18.28,15.81,0,11.52,11,14.54,23.67,18,15.34,4.22,32.72,9,32.72,30.86C171.47,125.18,159.18,140.54,135.68,140.54Z"/>
          <path class="cls-1" d="M134.78,32.6c19.95,0,33,10.95,34.64,26.85h-15c-.9-7.05-7.5-15-20.25-15.15h-.82c-10.86,0-19.28,5.83-19.28,16.81,0,27,56.39,10.2,56.39,48.9,0,14.84-12.14,29.54-34.79,29.54-21,0-35.85-11.7-36.15-28.95h14.55c.9,8.7,7,17.4,21.6,17.4,13.2,0,21-7.49,21-17.4,0-28.19-56.55-10.19-56.55-49,0-17.25,14-28.95,34.65-28.95m0-2c-10.63,0-19.75,2.93-26.37,8.47A28.36,28.36,0,0,0,98.13,61.55c0,10.07,3.59,17.5,11,22.7,6.31,4.43,14.36,6.58,22.15,8.66,12.56,3.35,23.41,6.25,23.41,17.68,0,9.36-7.46,15.4-19,15.4-16.7,0-19.23-11.94-19.61-15.6l-.19-1.8H97.49l0,2c.31,18.2,16,30.91,38.15,30.91,24.15,0,36.79-15.87,36.79-31.54,0-10.12-3.63-17.62-11.12-22.92-6.37-4.51-14.49-6.74-22.33-8.9-12.31-3.39-22.94-6.32-22.94-17.08,0-10.92,8.92-14.81,17.28-14.81h.76c11.44.13,17.51,7,18.32,13.4l.22,1.75h19l-.23-2.21c-1.8-17.4-16.18-28.64-36.63-28.64Z"/>
        </g>
        <g>
          <polygon points="187.01 139.49 187.01 32.8 245.26 32.8 245.26 46.05 202.66 46.05 202.66 79 240.76 79 240.76 92.25 202.66 92.25 202.66 126.24 245.26 126.24 245.26 139.49 187.01 139.49"/>
          <path class="cls-1" d="M244.26,33.8V45.05h-42.6V80h38.1V91.25h-38.1v36h42.6v11.25H188V33.8h56.25m2-2H186V140.49h60.25V125.24h-42.6v-32h38.1V78h-38.1V47.05h42.6V31.8Z"/>
        </g>
        <g>
          <path d="M314.86,139.49,290,96.75H275v42.74H259.38V33h34.75c27.5,0,37.3,16.4,37.3,31.75s-9.07,26.74-24.34,30.65l26.46,44.14ZM294.13,83.8c13.67,0,21.2-6.79,21.2-19.1s-7.13-18.5-21.2-18.5H275V83.8Z"/>
          <path class="cls-1" d="M294.13,34c24.6,0,36.3,13.65,36.3,30.75,0,13.35-7.35,26.1-24.9,30l26.25,43.79H315.43l-24.9-42.74H274v42.74H260.38V34h33.75M274,84.8h20.1c15.45,0,22.2-8.4,22.2-20.1s-6.6-19.5-22.2-19.5H274V84.8M294.13,32H258.38V140.49H276V97.75h13.35L313.7,139.5l.58,1h21l-1.81-3L308.63,96c15-4.33,23.8-15.84,23.8-31.27,0-15.83-10.06-32.75-38.3-32.75ZM276,47.2h18.1c13.41,0,20.2,5.89,20.2,17.5s-7.17,18.1-20.2,18.1H276V47.2Z"/>
        </g>
        <g>
          <path d="M455.43,140.54V73.4c0-17.31-8.58-26.45-24.8-26.45S406,56.09,406,73.4v67.14H390.33v-67c0-29.94,20.9-40.6,40.45-40.6s40.3,10.66,40.3,40.6v67Z"/>
          <path class="cls-1" d="M430.78,34c21.6,0,39.3,12.45,39.3,39.6v66H456.43V73.4c0-19.2-10.35-27.45-25.8-27.45S405,54.2,405,73.4v66.14H391.33v-66c0-27.15,17.85-39.6,39.45-39.6m0-2c-11.78,0-21.87,3.5-29.17,10.14-8,7.29-12.28,18.17-12.28,31.46v68H407V73.4c0-16.89,8-25.45,23.65-25.45s23.8,8.8,23.8,25.45v68.14h17.65v-68c0-30.67-21.34-41.6-41.3-41.6Z"/>
        </g>
        <g>
          <polygon points="559.31 139.49 505.95 58.58 505.95 139.49 490.3 139.49 490.3 32.8 505.49 32.8 558.85 113.57 558.85 32.8 574.5 32.8 574.5 139.49 559.31 139.49"/>
          <path class="cls-1" d="M573.5,33.8V138.49H559.85L505,55.25v83.24H491.3V33.8H505l54.9,83.09V33.8H573.5m2-2H557.85v78.44L506.62,32.7l-.59-.9H489.3V140.49H507V61.91l51.23,77.69.6.89H575.5V31.8Z"/>
        </g>
        <g>
          <polygon points="594.22 139.49 594.22 32.95 655.32 32.95 655.32 46.05 609.87 46.05 609.87 79.3 646.77 79.3 646.77 92.4 609.87 92.4 609.87 139.49 594.22 139.49"/>
          <path class="cls-1" d="M654.32,34v11.1H608.87V80.3h36.9V91.4h-36.9v47.09H595.22V34h59.1m2-2h-63.1V140.49h17.65V93.4h36.9V78.3h-36.9V47.05h45.45V32Z"/>
        </g>
        <g>
          <path d="M720.45,139.49l-24.9-42.74H680.63v42.74H665V33h34.74c27.5,0,37.3,16.4,37.3,31.75S728,91.44,712.68,95.35l26.46,44.14ZM699.72,83.8c13.68,0,21.2-6.79,21.2-19.1s-7.13-18.5-21.2-18.5H680.63V83.8Z"/>
          <path class="cls-1" d="M699.72,34C724.32,34,736,47.6,736,64.7c0,13.35-7.35,26.1-24.9,30l26.25,43.79H721l-24.9-42.74H679.63v42.74H666V34h33.74M679.63,84.8h20.09c15.45,0,22.2-8.4,22.2-20.1s-6.6-19.5-22.2-19.5H679.63V84.8M699.72,32H664V140.49h17.65V97.75H695L719.3,139.5l.57,1h21l-1.81-3L714.22,96c15-4.33,23.8-15.84,23.8-31.27C738,48.87,728,32,699.72,32ZM681.63,47.2h18.09c13.41,0,20.2,5.89,20.2,17.5s-7.17,18.1-20.2,18.1H681.63V47.2Z"/>
        </g>
        <g>
          <rect x="752.74" y="32.95" width="15.65" height="106.55"/>
          <path class="cls-1" d="M767.39,34V138.49H753.74V34h13.65m2-2H751.74V140.49h17.65V32Z"/>
        </g>
        <g>
          <polygon points="787.84 139.49 787.84 32.8 846.09 32.8 846.09 46.05 803.49 46.05 803.49 79 841.59 79 841.59 92.25 803.49 92.25 803.49 126.24 846.09 126.24 846.09 139.49 787.84 139.49"/>
          <path class="cls-1" d="M845.09,33.8V45.05h-42.6V80h38.1V91.25h-38.1v36h42.6v11.25H788.84V33.8h56.25m2-2H786.84V140.49h60.25V125.24h-42.6v-32h38.1V78h-38.1V47.05h42.6V31.8Z"/>
        </g>
        <g>
          <polygon points="929.22 139.49 875.86 58.58 875.86 139.49 860.21 139.49 860.21 32.8 875.4 32.8 928.76 113.57 928.76 32.8 944.41 32.8 944.41 139.49 929.22 139.49"/>
          <path class="cls-1" d="M943.41,33.8V138.49H929.76l-54.9-83.24v83.24H861.21V33.8h13.65l54.9,83.09V33.8h13.65m2-2H927.76v78.44L876.53,32.7l-.59-.9H859.21V140.49h17.65V61.91l51.23,77.69.59.89h16.73V31.8Z"/>
        </g>
        <g>
          <path d="M964.13,139.49V33h33.55c34.85,0,56.5,20.5,56.5,53.5,0,32.72-21.65,53-56.5,53Zm33.55-13.25c26.15,0,40.55-14.13,40.55-39.79s-14.78-40.4-40.55-40.4h-17.9v80.19Z"/>
          <path class="cls-1" d="M997.68,34c34.35,0,55.5,20.1,55.5,52.5s-21.15,52-55.5,52H965.13V34h32.55m-18.9,93.29h18.9c27.3,0,41.55-15.29,41.55-40.79s-14.25-41.4-41.55-41.4h-18.9v82.19M997.68,32H963.13V140.49h34.55c35.46,0,57.5-20.71,57.5-54,0-33.62-22-54.5-57.5-54.5Zm-16.9,15.1h16.9c25.5,0,39.55,14,39.55,39.4,0,25-14.05,38.79-39.55,38.79h-16.9V47.05Z"/>
        </g>
        <g>
          <polygon points="1065.23 139.49 1065.23 32.95 1080.88 32.95 1080.88 126.39 1117.48 126.39 1117.48 139.49 1065.23 139.49"/>
          <path class="cls-1" d="M1079.88,34v93.44h36.6v11.1h-50.25V34h13.65m2-2h-17.65V140.49h54.25v-15.1h-36.6V32Z"/>
        </g>
        <g>
          <polygon points="1137.57 139.49 1137.57 99.29 1102.72 32.95 1120.15 32.95 1145.32 84.61 1170.49 32.95 1187.92 32.95 1153.22 99.29 1153.22 139.49 1137.57 139.49"/>
          <path class="cls-1" d="M1186.27,34l-34,65.1v39.44h-13.65V99.05L1104.37,34h15.15l25.8,53L1171.12,34h15.15m3.3-2h-19.7l-.55,1.12-24,49.26-24-49.26-.55-1.12h-19.71l1.54,2.93,34,64.66v41h17.65V99.54L1188,34.88l1.53-2.93Z"/>
        </g>
      </g>
      <g>
        <path d="M11.3,21.6A10.19,10.19,0,0,1,1,11.3,10.19,10.19,0,0,1,11.3,1a10,10,0,0,1,10,10.3A10,10,0,0,1,11.3,21.6Z"/>
        <path class="cls-1" d="M11.3,2a9.1,9.1,0,0,1,9,9.3A9.15,9.15,0,1,1,2,11.3,9.16,9.16,0,0,1,11.3,2m0-2A11.18,11.18,0,0,0,0,11.3,11.18,11.18,0,0,0,11.3,22.6a11,11,0,0,0,11-11.3A11,11,0,0,0,11.3,0Z"/>
      </g>
      <g>
        <path d="M76.4,21.6A10.19,10.19,0,0,1,66.1,11.3,10.19,10.19,0,0,1,76.4,1a10,10,0,0,1,10,10.3A10,10,0,0,1,76.4,21.6Z"/>
        <path class="cls-1" d="M76.4,2a9.1,9.1,0,0,1,9,9.3,9.15,9.15,0,1,1-18.3,0A9.16,9.16,0,0,1,76.4,2m0-2A11.18,11.18,0,0,0,65.1,11.3,11.18,11.18,0,0,0,76.4,22.6a11,11,0,0,0,11-11.3A11,11,0,0,0,76.4,0Z"/>
      </g>
      <g>
        <path d="M398.31,21.6A10.19,10.19,0,0,1,388,11.3,10.19,10.19,0,0,1,398.31,1a10,10,0,0,1,10,10.3A10,10,0,0,1,398.31,21.6Z"/>
        <path class="cls-1" d="M398.31,2a9.1,9.1,0,0,1,9,9.3,9.15,9.15,0,1,1-18.3,0,9.16,9.16,0,0,1,9.3-9.3m0-2A11.18,11.18,0,0,0,387,11.3a11.18,11.18,0,0,0,11.3,11.3,11,11,0,0,0,11-11.3,11,11,0,0,0-11-11.3Z"/>
      </g>
      <g>
        <path d="M463.4,21.6a10.19,10.19,0,0,1-10.3-10.3A10.19,10.19,0,0,1,463.4,1a10,10,0,0,1,10,10.3A10,10,0,0,1,463.4,21.6Z"/>
        <path class="cls-1" d="M463.4,2a9.1,9.1,0,0,1,9,9.3,9.15,9.15,0,1,1-18.3,0A9.16,9.16,0,0,1,463.4,2m0-2a11.18,11.18,0,0,0-11.3,11.3,11.18,11.18,0,0,0,11.3,11.3,11,11,0,0,0,11-11.3A11,11,0,0,0,463.4,0Z"/>
      </g>
    </g>
  </g>
</svg>
