<svg xmlns="http://www.w3.org/2000/svg" viewBox="0 0 87.4 141.54">
  <defs>
    <style>
      .cls-1 {
        fill: #2ddfff;
      }
    </style>
  </defs>
  <g id="Livello_2" data-name="Livello 2">
    <g id="Livello_1-2" data-name="Livello 1">
      <g>
        <path d="M43.55,140.54c-19.48,0-40.3-10.66-40.3-40.59V33H18.9V100.1c0,17.3,8.57,26.44,24.8,26.44s24.65-9.14,24.65-26.44V33H84v67C84,129.88,63.1,140.54,43.55,140.54Z"/>
        <path d="M83,34v66c0,27.14-17.85,39.59-39.45,39.59S4.25,127.09,4.25,100V34H17.9V100.1c0,19.19,10.35,27.44,25.8,27.44s25.65-8.25,25.65-27.44V34H83m2-2H67.35V100.1c0,16.88-8,25.44-23.65,25.44s-23.8-8.8-23.8-25.44V32H2.25v68c0,30.67,21.33,41.59,41.3,41.59,11.78,0,21.87-3.5,29.17-10.13C80.75,124.11,85,113.23,85,100V32Z"/>
      </g>
      <g>
        <path class="cls-1" d="M11.3,21.6A10.19,10.19,0,0,1,1,11.3,10.19,10.19,0,0,1,11.3,1a10,10,0,0,1,10,10.3A10,10,0,0,1,11.3,21.6Z"/>
        <path d="M11.3,2a9.1,9.1,0,0,1,9,9.3A9.15,9.15,0,1,1,2,11.3,9.16,9.16,0,0,1,11.3,2m0-2A11.18,11.18,0,0,0,0,11.3,11.18,11.18,0,0,0,11.3,22.6a11,11,0,0,0,11-11.3A11,11,0,0,0,11.3,0Z"/>
      </g>
      <g>
        <path class="cls-1" d="M76.4,21.6A10.19,10.19,0,0,1,66.1,11.3,10.19,10.19,0,0,1,76.4,1a10,10,0,0,1,10,10.3A10,10,0,0,1,76.4,21.6Z"/>
        <path d="M76.4,2a9.1,9.1,0,0,1,9,9.3,9.15,9.15,0,1,1-18.3,0A9.16,9.16,0,0,1,76.4,2m0-2A11.18,11.18,0,0,0,65.1,11.3,11.18,11.18,0,0,0,76.4,22.6a11,11,0,0,0,11-11.3A11,11,0,0,0,76.4,0Z"/>
      </g>
    </g>
  </g>
</svg>
