<svg xmlns="http://www.w3.org/2000/svg" viewBox="0 0 85.4 139.54">
  <defs>
    <style>
      .cls-1 {
        fill: #2ddfff;
      }
    </style>
  </defs>
  <g id="Livello_2" data-name="Livello 2">
    <g id="Livello_1-2" data-name="Livello 1">
      <path class="cls-1" d="M42.55,139.54c-19.48,0-40.3-10.66-40.3-40.59V32H17.9V99.1c0,17.3,8.57,26.44,24.8,26.44S67.35,116.4,67.35,99.1V32H83V99C83,128.88,62.1,139.54,42.55,139.54Z"/>
      <path class="cls-1" d="M10.3,20.6A10.19,10.19,0,0,1,0,10.3,10.19,10.19,0,0,1,10.3,0a10,10,0,0,1,10,10.3A10,10,0,0,1,10.3,20.6Z"/>
      <path class="cls-1" d="M75.4,20.6A10.19,10.19,0,0,1,65.1,10.3,10.19,10.19,0,0,1,75.4,0a10,10,0,0,1,10,10.3A10,10,0,0,1,75.4,20.6Z"/>
    </g>
  </g>
</svg>
